<svg xmlns="http://www.w3.org/2000/svg" width="549.986" height="138.438" viewBox="0 0 549.986 138.438"><g transform="translate(-131.623 -984.423)"><path d="M131.623,1121.224S334.459,1071.4,484.745,1106.5l2.046-1.654s-132.713-38.687-352.652,8.482Z" fill="#16428f"/><path d="M228.717,1023.446v8.258a14.987,14.987,0,0,1,4.248-6.018,16.883,16.883,0,0,1,10.725-3.657,18.17,18.17,0,0,1,6.048,1.061,14.419,14.419,0,0,1,8.811,9.436c4.882-9.08,12.627-10.376,16.769-10.376a17.749,17.749,0,0,1,12.53,4.834c5.305,5.192,5.518,10.85,5.518,25v32.552h-15.6v-28.9c0-9.789-.212-11.792-1.8-14.383a6.878,6.878,0,0,0-6.474-3.425,8.112,8.112,0,0,0-6.691,3.536c-1.7,2.95-1.7,8.024-1.7,12.975v30.2h-15.6v-30.782c0-6.6,0-9.556-1.59-12.267a7.432,7.432,0,0,0-6.371-3.657,8.219,8.219,0,0,0-4.032,1.065c-4.567,2.592-4.67,7.075-4.67,18.634v27.007h-15.6v-61.094Z" fill="#16428f"/><path d="M404.914,1084.541H420.2v-61.212H405.235v7.9c-2.76-5.9-7.535-9.319-13.588-9.319-10.4,0-23.992,8.967-23.992,33.027,0,19.11,9.77,30.905,22.824,30.905,8.919,0,12.525-5.192,14.435-8.024Zm-.8-31.253c0,5.541-.745,10.848-4.035,14.863a9.088,9.088,0,0,1-6.793,3.417c-3.076,0-6.58-1.888-8.7-7.2a27.7,27.7,0,0,1-1.7-10.495c0-4.717.635-9.554,3.29-13.444a9.942,9.942,0,0,1,7.751-4.478,8.406,8.406,0,0,1,6.262,3.064c2.013,2.24,3.927,6.37,3.927,14.272" fill="#16428f"/><path d="M663.953,1111.7l-.075.4c.245.079.251.064.391.231l.316-.152-.081-.316Zm4.637-1.255h0Zm-.155-.239.155.239c-.158-.146-.054,0-.155-.239m-6.209-1.179c0,.224-.045.184.081.4.152.163.026.079.312.156l.158-.235Zm-3.457-.156-.235.31.154.241c1.177.485,3.579,2.7,4.639,2.355v-.313l-.158-.157c-.223.087-.118.068-.315.079v-.392c-.573.012-.571-.235-1.179-.156-.02-.285.03-.54-.237-.707-.274-.182-.842-.046-1.177-.16-.526-.18-.821-.905-1.492-1.1m5.109-.314.391.233h-.158v.158h-.158Zm-7.938-.156v.314h.316l-.081-.314Zm.864-.394c-.046.273-.028.227.076.471.744.022.806.325,1.02.865l.474-.162v-.233Zm-2.673-.474c.132.187.15.16.077.4-.139-.2-.126-.126-.077-.4m.867-.47.156.237h.077v-.079Zm-1.181,1.021,1.021-.155v.393l.709-.161-.079.317c.332-.123.194.013.314-.317h-.235c-.3-.533-.827-.472-1.021-1.1l-.4-.156-.235.233v.241c-.344-.1-.288-.125-.553,0l.161.233c.384.115.276.024.313.47m5.894-1.491c-.017.112.035.075-.077.235Zm-.549-.474h.314l-.233.474a1.25,1.25,0,0,1-.268-.061.805.805,0,0,1-.127-.1c.372-.114.2.053.314-.316m-3.931-.473.158.161-.077.154-.158-.154Zm2.991-.076a2.632,2.632,0,0,0,.626.391l-.079.158h-.081l-.863-.473Zm-7.469-.079.705.235-.158.158-.235.158Zm2.672-.55.783.392.081.474-.158.154-.158-.077c-.135-.494-.359-.567-.548-.943m-5.268-.472,1.966.784-.156.158a5.078,5.078,0,0,1-1.81-.942m6.918-.081a.891.891,0,0,1,.253.1,1.269,1.269,0,0,1,.14.143Zm-1.339-.154.081.154Zm-6.126,0,.547.235c-.414-.022-.377.018-.547-.235m-.314-.077h.314v.077Zm4.946-.553c.446.235.722.995.554,1.182a2.838,2.838,0,0,0-1.259-.787v-.079h.705Zm-.942-.235h.237l-.156.156Zm-.547-.158h0Zm-.393-.156.233.156Zm-.237-.079h0Zm-.235-.077h0Zm-.235-.081h0Zm-.314-.075h.314v.075Zm-1.182-.472h0Zm-1.491-.554.237.161Zm-.47-.154h0Zm-1.023-.4h0Zm-1.654-.158h.16l-.16.158Zm-1.177-.075a1.344,1.344,0,0,0,.79.47v.077a1.688,1.688,0,0,1-.865-.154Zm1.89-.081.312.156Zm-2.988-.081.784.081-.156.235Zm2.435-.075h0Zm-.16-.077h0Zm-3.456-.241.63.318Zm.079-.861.395.234Zm38.2-7.387c.239.15.077.026.156.237.047.272.026.229-.081.472h-.235l-.077-.081Zm-9.2-.316c.237.1.094,0,.233.156H669.3Zm8.565-4.556-.315.864.078.079h.079l.472-.316c.008-.475.045-.495-.314-.627m.158-.946c.193.131.011.083.235,0Zm-.316-3.064-.157.316.078.156h.4l.075-.235Zm-7.623-1.257-.237.238c.054.283.034.237.162.391.293-.218.432-.382.075-.629m8.251-.157.235.157h-.235Zm-.707-1.182v.318h.079l.158-.156Zm-7.7,0c-.186.435-.2.777.314.946v-.709Zm-.863-.938.311.075-.155.237-.156-.079Zm8.565-.474a1.791,1.791,0,0,0-.154,1.1l.154.077.237-.154c.105-.613.277-.753-.237-1.023m-7.858-1.962a6.133,6.133,0,0,0,.156,2.906h.083l.312-.079c-.077-.593-.152-2.548-.551-2.827m7.78-3.3-.394.156a.955.955,0,0,0,.156.707c.181-.391.272-.283.553-.391v-.316Zm1.178-.314h.16l-.16.153Zm0-2.515c.241.151.126.017.235.314l-.156.16-.156-.079Zm-9.035-.079c-.047.336-.129.248.233.393-.083-.286-.062-.231-.233-.393m7.152-.156a1.883,1.883,0,0,0,0,1.1l.236.081.156-.314a1.076,1.076,0,0,0-.081-.865Zm1.806-.552c.3.106.165,0,.312.235h-.312Zm-9.512-.393c.3.1.167,0,.315.238-.3-.106-.161,0-.315-.238m7.861-.547c.013.35-.079.22.156.468l.156-.075v-.314Zm-8.014-.235c.3.1.16,0,.314.235h-.314Zm.077-.4h.156c-.139.073-.017.068-.156,0m9.035-3.459.316.314c-.239.88.263,1.463-.156,2.361l-.16-.081-.075-1.022-.473-.158v-.233l.548-.474Zm-.075-.47.312.156-.237.237-.233-.156Zm-2.125-.081-.233.237.314.628.152-.079c.025-.457.034-.606-.233-.786m-6.205-.156c.049.7-.464,2.066.154,2.828l.162-.076a8.281,8.281,0,0,1,.231-2.515l-.231-.158Zm6.286-.55-.237.313c.122.331-.015.193.316.316.043-.356.1-.394-.079-.629m1.963-2.2.316.158v.318h-.235l-.158-.083v-.081Zm.081-.55.312.235-.156.161h-.156Zm-.473,0,.157.077c-.03.323-.024.31-.157.473v.158c-.371-.11-.321-.059-.394-.473Zm.236-.7h0Zm-1.967-.158-.235.312v.158l.158.079.47-.318v-.231Zm1.731-.316h.236l-.079.316h-.079c-.154-.094-.277-.11-.391-.237Zm.392-.474.393.156-.077.4h-.235l-.081-.079Zm-.314-.154.158.154Zm.4-.314h.235c-.152.237-.015.127-.316.233v-.077Zm.156-.789c-.421-.017-.428-.026-.629-.232a3.492,3.492,0,0,0,.315-1.338h.314l.079.239a3.761,3.761,0,0,0-.079,1.331m-.237-3.534c.288.09.216.088.393.235-.123.376.008.378.079.945l-.156.152h-.235l-.081-.077a5.3,5.3,0,0,0,0-1.255m-8.8-2.2h.161l-.161.235Zm8.959-.548.316.314-.235.234h-.081l-.233-.234v-.079Zm0-.236h0Zm-.47-4.478-.235.312.081.553h.154l.237-.707Zm-8.095-.552h.237l-.158.156Zm8.565-1.574.316.476-.156.233-.393-.081v-.075Zm-7.7-.233c-.113.241-.059,0-.079.314h.235Zm5.184-.16c-.156.379-.3.595.158.788v-.16l.077-.547Zm1.653-.784.391.156-.316.4-.156-.081Zm-1.495-.157-.158.71.547-.081-.073-.629Zm2.281-.076h.235l.156.156-.079.233a.859.859,0,0,1-.254-.09,1.507,1.507,0,0,1-.139-.143Zm-1.178-.4h.155l-.155.159Zm-.787-.628-.239.314.079.158h.393Zm-.16-.865a.754.754,0,0,0,.16.632v.152l.314-.077.077-.472-.237-.156Zm.786-.156-.079.391h.476l.156-.077v-.158l-.081-.156Zm.4-.393c.175.164.077.129.312.079Zm.075-.472c.2.226.1.122.318,0Zm-7.623-1.1.079.158Zm8.017-2.438-.157.472.235.313v-.157l.158-.47Zm-7.7-.628-.077,1.021h.314l.156-.079.081-.626Zm-19.1-.549,1.5.156c.018.354,5.187,2.574,5.187,3.85,1.1.02,2.91,1.81,3.378,2.754a9.179,9.179,0,0,1,1.258,4.558c-.077.455-.295.435-.788.626a4.146,4.146,0,0,1-.863,3.066,32.577,32.577,0,0,0-2.2,4.243c-.206.611.276,1.316.393,1.806v.237l-.553,1.019.241,1.654c-.662,4.145-1.123,10.639-2.91,14.224-.762-.05-.54.308-1.335.391-.69-.275-1.375-.007-2.121-.391-.66-.336-1.24-.543-1.415-1.257-.074-.3.188-.546,0-.79-.151-.178-.359-.1-.553-.231-.669-.446-.285-1.238-.628-1.965a6.209,6.209,0,0,0-.47-.868c-.244-.389-.687-.677-.708-.94-.32-3.965-.291-17.835.412-20.6.235-4.548.477-8.034.533-8.245v-2.592c.31-.476,1.207-.356,1.647-.707m-29.39-.314c-.673.7-1.292.742-1.73,1.415-.451-.062-.532-.211-.865.076l.081.554-1.256-.161c-.122,1.075-1.733,1.184-3.384,4.479l-2.276,6.051.079.158.393-.077a.778.778,0,0,1,.705.156c.872-.432,1.361-1.091,2.043-1.412.28-.132.56.158.863.074a14.636,14.636,0,0,0,1.81-1.019l.628-.946c.425.233.152.2.551-.077.117.387.024.277.474.312,1.2-.514,1.667-2.353,2.357-3.376-.617-1.428.532-4.346.155-6.133Zm56.9-1.808.237.314-.16.394H678.1l-.16-.24-.075-.233Zm0-1.654h.156l-.156.24Zm-.16-1.254.237.237-.077.7-.235.08-.158-.08a2.155,2.155,0,0,1,.233-.94m.081-1.26h.235v.077l-.235.083Zm-.081-1.334.316.156v.943h-.235l-.081-.707Zm.16-.472.312.156-.156.237-.235-.237Zm0-1.179.312.314c-.126.342,0,.23-.391.316Zm0-.784.312.233-.075.158a.716.716,0,0,1-.4-.158Zm.077-.473h.16l-.16.157Zm.079-3.143c.239.15.128.012.237.312l-.081.081h-.391c.088-.287.088-.217.235-.393m0-1.1.314.237c-.107.347-.034.417-.393.549Zm-.391-.316.156.162-.237.391-.156-.16v-.156Zm.235-.468h.237l-.16.393c-.139-.2-.123-.128-.077-.393m-.708-.159c.238.152.127.014.236.315l-.236.156h-.076Zm.945-.628.312.159v.078l-.237.235-.235-.235Zm0-.942.312.156-.156.16h-.156Zm0-1.177.312.154v.47c-.363-.114-.277-.143-.472-.393Zm-1.1-.789-.237.159.081.156c-.017.261-.071.18.075.391h.081l.081-.154c.042-.319.121-.343-.081-.552m1.177-.393c.295.215.155.284.237.626l-.079.16-.47-.16v-.074Zm.081-.784a.7.7,0,0,1,.14.139.956.956,0,0,1,.1.252l-.16.079h-.158l-.075-.079Zm0-1.026a.469.469,0,0,1-.081.87l-.075-.634Zm0-1.1h.237c.011.584.056.73-.393.866v-.237Zm0-1.8a.854.854,0,0,1,.237.391l-.081.156h-.312v-.314Zm-73.2,62.4a18.953,18.953,0,0,0,1.608-1.178l1.024-.786.861-.472c.291-.485.682-.413,1.025-.786a18.287,18.287,0,0,0,2.28-4.479c-.914-.665-2.429-.85-3.773-1.491-.576-.281-.732-1.083-1.181-1.416-.7-.519-.686-.126-2.123-1.415-.852-1.386-.642-3.328-.705-3.773a13.481,13.481,0,0,1,.156-6.21c-.268-.116.219-.259.47-.391a2.548,2.548,0,0,1,.158-.942c2.7-.336,5.421-6.587,6.761-9.117.349-.661,2.081-2.9,1.568-3.617l-.233-.231c-.36.11-.36.215-.551.466a5.265,5.265,0,0,0-2.75.239s-2.277-.35-2.672-.474c-.44-.137-3.042-.067-3.773-.392-.822-.366-2.985-1.73-2.985-1.73-1.82-.284-3.475-2.849-3.7-3.224l-.94-.706a3.857,3.857,0,0,1,.391-3.142c.6.065,2.521-1.51,2.91-1.887l.47.158c1.213-1.92,25.721-11.14,26.48-11.646.411-.278,6.317-3.386,6.763-3.6l1.494-.708c.434-.237,1.1-.634,1.47-.545,1.237-.542,3.481.627,3.481.627,1.211.285,3.853,1.333,3.853,1.333.6.316,2.379.758,2.746,1.338a11.269,11.269,0,0,0,1.493,2.36,2.937,2.937,0,0,1,1.652,1.567,4.4,4.4,0,0,1,2.124.16,3.308,3.308,0,0,1-1.1,2.75l-.237-.235-.154.156-.081.393a.941.941,0,0,1,.551.942c-.633.125-.3.268-.63.632l-1.883.784-.867,1.1a.51.51,0,0,1-.628-.075,48.214,48.214,0,0,1-8.96,3.143c-.688.174-1.3-.075-1.962.316-1.1.646-1.914,1.621-3.461,1.96.03.4.282,2.222.318,2.282.161.289,1,.325,1.257.632a15.941,15.941,0,0,1,3.377,8.718l1.65-.314a17.885,17.885,0,0,1,3.261,1.3l2.084,2.4c1.606,2.225,1.211,2.293,1.494,5.107-.67.305-.31.757-.864,1.26-.581.519-1.162.354-1.807.706-.715.392-1.165,1.223-2.046,1.491-.061-.27-1.62.714-4.086,1.807-2.3.259-3.681,1.676-5.66,1.656-.14.416-.317.46-.391,1.02l.08.079a18.9,18.9,0,0,1,7.858,4l1.1.081c1.974,1.043,2.181,3.8,2.357,6.286.363.009-.361,2.671,0,4.164l-1.412,1.812v.861c-.391.661-3.1,1.819-3.616,1.966,0,0-1.672.556-2.356,0-1.036-.839-1.648-2.717-2.6-3.461-.731-.574-1.713-.418-2.672-.783-.4-.155-.481-.4-1.1-.314l-.233.314c-.524.995.4,5.013.861,6.129,0,0-.529,1.129-.628,1.412-.181.54.266,1.63.316,1.968v.075c-.819,1.229.5,4.574-.787,6.055l-1.179.788a.59.59,0,0,1-.079.547,1.115,1.115,0,0,0-.786.631,8.753,8.753,0,0,1-2.039,2.906s-4.149,1.14-5.817-1.1a18.957,18.957,0,0,0-1.574-2.045c-.379-.378-.67.046-.627-.628a7.886,7.886,0,0,1,0-3.848,3.282,3.282,0,0,1-.237-1.806c-.47-.12-.5-.4-.863-.63,0,0-.271-.063-.553-.16-2.662.1-3.589,2.581-5.265,3.7-.608.4-1.293.025-1.964.548-.279.213-.54.865-.868,1.019l-.859-.075a4.494,4.494,0,0,0-1.81,1.415,1.29,1.29,0,0,1-1,.034,11.036,11.036,0,0,1-2.068-.9l-.235-.867c-.778-1.65-1.073-1.683-.547-3.851.293-1.219-.139-2.2.547-3.064-.129-.467.641-.832.641-.832l.6-.824c.575-1.216,2.912-3.338,3.224-4.155Zm73.281-64.363.079.156h-.156Zm-1.883,9.9a1.861,1.861,0,0,0,.783,1.65c-.13.244-.164.248-.154.474l.468.156a5.308,5.308,0,0,0-.156,1.65h.709c-.172.5-.565.456-1.021.628.069.529.365.483.468.786.333.96-1.129,2.453,0,3.459-.722,1.265-.72,8.127-.314,8.646l.158-.238c.239-.6.067-1.577.549-1.8a18.678,18.678,0,0,1,.316,2.277c-.044.382-.446.653-.628.941a3.969,3.969,0,0,0-.237,2.831c.139.206.4.1.549.391l-.156.083-.393-.083c-.209.814-.955,1.342-1.414,1.968.156.8.767.977,1.021,1.647.245-.15.1-.193.393-.152a3.6,3.6,0,0,0-.549,1.882l1.021.08.077.081c-.166.762-.211.5,0,1.256l-.156.077a1.184,1.184,0,0,0-.942.318v1.411h.075l.238-.235c.106-.323-.052-.633.157-.866l.472-.549.156.077v.079l-.47,1.654c.342.136.333.121.393.549-.48,1-1.031,1.876-.784,2.987l.154-.081.4-1.021h.235l.077.076a1.318,1.318,0,0,0-.156,1.026l-.942.78.313,1.81c-.212.689-.879,1.364-1.022,2.2l.317.314a1.338,1.338,0,0,0,.862-.154l.158.154a2.574,2.574,0,0,0-1.02,1.807c.294.127.33.088.467.4l-.707.156c-.022.628-.445.789-.863.949v-.318l.389-.787-.626.236c-.061.626-.505,1.862.16,1.726l.154.083c-.3.453-.375.42.16.706l.233-.236c-.325-1.032.154-1.184.553-1.654l.472.08.156.081c-.09.417-.081.31-.393.474-.243-.107-.2-.125-.472-.079a2.524,2.524,0,0,0,.077,1.334h.314l.237-.314a1.225,1.225,0,0,1,.394-1.1c.3.272.429.273.708.551l-.16.156-.391-.235-.157.235a1.451,1.451,0,0,0-.076,1.1l.549-.862h.235l.077.157c-.34.595-.561.539-.549,1.416h-.474a8.437,8.437,0,0,0-.547,2.511l.154.081.867-.314-.474.705-.707-.075.4.312-.472.235c.141.314.162.4.472.549h.786c-.051-.5-.128-.448,0-.784l.549-.081.16,1.1h-.553v.549l.472.159a1.962,1.962,0,0,0-.079,1.886c-.6.044-.624.257-.861.628v.156l.233.161h.079c.191-.313.231-.508.549-.708h.079l.393.708c-.348.078-.316.052-.472.313-.2,1.235.39,3.194-.156,4.4-.765.04-.674.635-.393,1.1h.312c.139-.319.021-.279.4-.393v.074c-.23.749.233,1.476,0,2.2-.181.556-.884,1.158-.709,1.887l.237.075c.189-.293.156-.3.391-.156-.171.234-.222.19-.316.553a.907.907,0,0,1,.553.628c-.348.872-.125,1.568-.628,2.2.612.516.632,2.076.391,3.064-.229-.172-.19-.222-.549-.312-.046.637-.361,1.687.077,2.122l.237-.161a3.678,3.678,0,0,1,.235-1.414h.237l.077.083a14.6,14.6,0,0,0-.314,2.825l-.628.237c-.006.584.051.841,0,1.652l.079.077h.393l.312-.471.237.157a19.63,19.63,0,0,0,.786,7.781l.316,1.571-.079.549c.6,1.915,2.229,8.4,1.889,9.117a11.187,11.187,0,0,0-.474,3.617,16.914,16.914,0,0,1-3.066,4.321,21.759,21.759,0,0,1-4.482,1.967c-.352.1-2.04.315-2.04.315-2.21-.953-9.268-6.712-10.063-7.154-2.7-1.513-4.847-3.784-7.465-5.342a4.155,4.155,0,0,1-.389.158,2.742,2.742,0,0,0-.869-1.5l-.312-.079-.081.474-.156-.16c-.472-.264-.655-.571-1.177-.7l.076-.156h.472l-.079-.472a11.519,11.519,0,0,0-1.177-.08l-.314.629h-.079l.312-1.257a6.856,6.856,0,0,0-2.043-1.414l-.786-.081a28.6,28.6,0,0,0-5.971-3.848c-.584-.33-1.084-.31-1.493-.789,2.377.375,5.242,2.341,7.152,3.618.7.47,2.252.707,2.748,1.1a6.8,6.8,0,0,0,3.38,1.726v-.233c-.449-.678-.541-1.568-1.336-1.889-.078-.03-.57-.312-.63-.078-.232-.328-.017-.888-.549-.706-1.378-.22-6.843-2.247-7.54-3.145,1.1.235,1.927.874,2.906,1.021.006-.379-.079-.263.077-.469.22.867,4.775,2.506,6.051,2.593l-.077.552.547-.08c.164.609.476.317.868.627-.228.268-.091.285.08.553.539.1.421.277.942.389l.079-.549.233.235c-.292.156-.128-.031-.233.314a5.561,5.561,0,0,0,1.961.865l-.075-.393-.551-.393c.919.253,1.787,1.184,2.829.947v-.313c-.553-.348-1.354-1.052-1.965-1.027-.236.263-.139.2-.392-.075l-.393-.237c.325-.163.332.009.472-.4a.95.95,0,0,1-.158-.86h.233l.161,1.333h.312v-.628l.474.944a21,21,0,0,0,2.356,1.021l-.235.238-.786-.161v.316a5.023,5.023,0,0,0,2.357,1.022v-.393a2.082,2.082,0,0,1-1.256-.71v-.074l2.2.548v-.235l-.391-.393.553.08c.123.3.092.261.392.39l-.161.473.554.077-.08.393,1.65.472v.472h-.077c-.2-.27-.069-.283-.474-.393-.56.241-.626-.261-1.257,0v.077l.158.316c.981.075,1.44.6,2.357.705a2.5,2.5,0,0,0-.466-1.495l.073-.154.393.235c-.09.421-.243.384.08.63.411.127.39-.206.705-.156.4.062.739.569,1.417.63v-.474l.473.4c-.355.1-.159-.054-.313.237l.234.152,1.1.239c.064-.347.047-.292.235-.47l.709.314c-.217-2.031.411-4.238.158-6.132-.142-1.038-1.311-7.182-.867-8.329a.851.851,0,0,0,.63.234v-.234c-.273-.355-.527-.472-.63-1.021a9.647,9.647,0,0,1,.63-1.183c.19-.2.447-.064.63-.314l-.314-.234-.391.078c.023-.774-.126-.664-.555-1.1a2.155,2.155,0,0,0,.472-1.963l-.393.158c.158-.4,1.487-1.435.707-2.438l-.231-.315-.316.394-.554-.55c.33-1.438,1.309-3.834,1.182-4.715l-.158-.156-.47.156c.049.42.15.575,0,.784h-.081c-.092-.971-.4-1.478.158-2.2l-.551-1.338c.739-.65.006-3.82-.233-4.555-.235-.719.406-1.061.388-1.494-.294-.037-.176.057-.388-.237.314-.2.327-.053.388-.552-.289-.441-.23-.592,0-1.256l-.388-.314v-.079c.4-.107.323-.127.468-.474-.281-.2-.466-.1-.628-.468h.16l1.177-.16v-.077a2.5,2.5,0,0,0-.63-1.176c.113-.283.212-.291.16-.553a9.28,9.28,0,0,1-.707-2.122l.314.079h.074v-.314a1.019,1.019,0,0,1,.08-1.416l-.315-.393a4.24,4.24,0,0,0,.554-1.49l-.554-.94c.751-1.373-.262-4.019.235-5.348.163-.14.056,0,.159-.237l-.314-.553.474-.312.233-1.492-.233-.077c-.3.1-.233.171-.474,0-.062-.156-.069-.153-.314-.316.108-.347.034-.417.395-.551v.63l.233-.079c0-.962.523-.909.314-1.886l-.784-.236.47-.549c-.412-.413-.671-1.036-.233-1.416l.074-.235-.311-.862.391-.318a1.034,1.034,0,0,1-.235-.549l.235-.156c.348.207.48.31.786,0a4.191,4.191,0,0,1,0-2.124,1.111,1.111,0,0,1-.786-.707,7.729,7.729,0,0,0,.472-2.673l-.314-.156.551-.474v-.314l-.079-.077-.237.158-.235.233c-.084-.794-.541-.721-.312-1.334l.233-.079c.214.238.267.446.551.631l.237-.159-.158-2.2-.393.158-.316-.239c0-1.494-.137-2.294-.154-3.455l.626-.08v-.316l-.233-.391h-.554v-.389l.394-.4c-.453-.762-.15-1.43,0-2.361.571-.051.655-.241.944-.549l-.468-2.357-.476-.239a11.167,11.167,0,0,1,.63-4.633c.271.326.124.473.7.55v-.236l-.547-.784-.628.392-.081-.159.472-.47a3.606,3.606,0,0,1-.237-2.123l.162-.078.154.078-.079,1.5.784-.237c-.021-.777-.284-.9-.468-1.414h.549v-.08c-.245-.324-.736-.356-1.023-.628v-.079l.083-.158c.611.061.859.134,1.256-.075a3.517,3.517,0,0,1,.075-1.1l-.391-.474-.393.083a2.781,2.781,0,0,1-.709,1.021l-.154-.162c.51-1.52-.282-2.434.154-4.16.185-.725-.1-2.436,0-3.3.49-4.347.307-10.422-.628-13.677,0,0-.882-6.587-.866-6.6v-3.931a3.651,3.651,0,0,1,2.047-2.513c.52-.2,1.141.369,1.415.472.882.337,2.223.6,2.67,1.569a7.268,7.268,0,0,0,1.323,1.458,11.33,11.33,0,0,0,2.371.743,7.94,7.94,0,0,1,1.886,2.91c.64,1.467.238,2.267.552,3.615l-.552.551c-.155.648.343,1.525,0,2.355-.294.718-1.444,3.318-.865,4.245v.077l-.472.471c.655,1.39-.186,3.465-.47,4.954l.156.079h.156a.818.818,0,0,1,.318-.4h.075l-.075,2.2-.16.075-.314-.314.081-.864c-.563.236-.516,1.7-.472,2.361l.784-.4.081.079-.081.549-.549.24c0,.234-.235,3.931-.235,3.931-.288.508-.615.319-.63,1.335h.081l.154-.081.158-.547h.393a2.531,2.531,0,0,0,0,1.65h-.551l-.078.154.392.47c-.376.505-.6.408-1.1.628l.074.241.162.075.784-.316-.079.788ZM542.112,990.342l2.928.507c.71.275,1.9.743,2.709.986a13.464,13.464,0,0,1,3.933,2.2s3.765,2.6,5.177,5.8c.147.338.723,1.039.94,1.489.242.518,1.019,3.14,1.019,3.14.138.947-.194,2.272-.079,2.977.056.364.488.8.55,1.179.085.532-.249,1.052-.159,1.643l.24,1.649-.394.236c.095.59.3.52-.079.865a4.766,4.766,0,0,1-2.668,3.059c-1.508.756-3.325.141-4.316.235-1.269-.322-3.614-.623-5.334-2.038-.648-.538-1.283-.751-1.489-1.568a1.934,1.934,0,0,1,.084-1.338,3.571,3.571,0,0,1-.443-.837,6.767,6.767,0,0,1-.269-1.357,2.436,2.436,0,0,1,.237-1.256c-.915-.141-4.026-4.345-4.758-5.03a9.442,9.442,0,0,1-1.594-2.2,7.824,7.824,0,0,1-1.492-1.949c.071-.362-.393-.628-.234-.858l-.236-.475c.466-1.315-.487-3.532-.157-4.94.6-.336.707-.929,2.275-1.647a26.333,26.333,0,0,1,3.609-.474M522.579,1088.7l.158.156ZM505.4,1078.345l-.156.474h.081l.389-.158v-.154Zm8.942-2.975.077.154Zm.863-.316h0Zm1.724-.942c.129.2.075.013,0,.239h-.081Zm.63-.235c.168.175.154.153.077.4v-.16Zm.94-.231.314.073-.16.239-.233.075-.155-.156v-.079Zm-1.021-.241h.235v.081l-.235.075Zm3.845-.628.079.16Zm-.394,0,.082.237h-.082l-.08-.077Zm3.3-1.176.233.159v.077h-.233Zm.468-.155h.161c-.143.16-.005.055-.237.155Zm-11.765-6.275-.94.314.08.393h.074a2.3,2.3,0,0,0,1.494-.628v-.079Zm.94-.235c.107.213.186.232.236,0Zm30.435-.391h.237v.079l-.237.077Zm1.017-.079.237.158-.156.156-.156-.156Zm1.256-.236h0Zm-30.667-.076c-.178.173-.2.112-.314.391h.314l.314-.315Zm31.377-.159h.232l-.156.159Zm-.242-.235h.163l-.163.156Zm4.71-1.017.079.154Zm-2.666-.16-.077.389h.077l.314-.229Zm-1.881.238v.386a2.357,2.357,0,0,0-2.2,1.259c-.246-.192-.249-.288-.628-.392a1.313,1.313,0,0,1-.784.392l-.075.548h.232c.132-.283.024-.184.315-.313l.077.391-.468.235-.554-.313c-1.032.451-4.458,4.428-4.467,5.175-.434,1.155,1.256,2.355,1.256,2.355,1.842.182,2.429,2.752,5.333,2.119.5-.109.845.005,1.094-.391a14.76,14.76,0,0,1,2.2-3.532l-.075-.707a14.924,14.924,0,0,1,1.647-2.2,14.622,14.622,0,0,1,1.177-3.371c.408-.682,1.163-1.055,1.412-2.037a5.255,5.255,0,0,0-.788-.239c-.216.538-.624.453-.861,1.017-.118-.174-.143-.092-.077-.31l-.4-.391.63-.316-.075-.154h-.555l-.466.47v.077c.508.279.519.466,0,.707l-.16-.083.081-.7h-.081l-.468.237.393.391-.081.156-1.884.626v-.312l.081-.235.7-.079.237-.393-.078-.233h-.315l-.7.47c-.25-.2-.175-.254-.625-.313m-23.609-2.274h.157l-.157.156Zm.157-.083h.312v.083Zm.862-.466.313.154-.076.4-.161.079-.468-.4.075-.158Zm1.331-.632a.924.924,0,0,1,.549.241l.081.391-.237.231c-.344-.192-.717-.281-.863-.7Zm1.179-.154.547.154v.079l-1.021.235v-.235c.393-.044.3.015.474-.233m1.412-.472.312.16-.075.158h-.393v-.086Zm.782-.235.237.155v.08h-.237Zm2.278-.157-.081.077.316.163v-.083Zm-1.8,0,.153.24c-.16-.147-.055,0-.153-.24m2.585-.313c-.161.243-.22.2-.315.553h.235l.392-.163c-.113-.239-.084-.25-.312-.39m23.922-22.981h.16l-.237.232Zm2.04-2.039v.312h.079l.158-.158Zm6.277-.393-.079.156v.077h.233Zm-3.845-2.2c-.145.345-.091.289,0,.705a.936.936,0,0,0,.628-.471v-.074Zm1.019-.079-.075.156.075.083.156-.16v-.079Zm-.156-1.1-.156.081v.235l.468.156v-.235c-.15-.188-.048-.125-.312-.237m1.333-.076a1.224,1.224,0,0,1-.94.313l.156.706,1.1-.784c-.147-.191-.047-.126-.312-.235m-11.448-.236h.31v-.316h-.31Zm10.822-.709-.235.316v.158l.389.156c.077-.333.09-.263.237-.47Zm1.254-.075-.628.235v.707h.235l.158-.237.235.391.158-.154.626-.474c-.178-.343-.363-.371-.784-.468m5.88-1.1-.075.154.314.158h.075c-.122-.333.018-.189-.314-.312m6.04-.081.158.156-.158.237-.154-.312Zm-11.215,6.747c-.062.387.054.235-.235.391l.235-1.256a2.825,2.825,0,0,0-1.568,1.1l.235.312h.079c.1-.4.119-.533.549-.628l.237.081v.314l-.079.233c-1.331.113-1.316,1.189-2.745,1.254l-.081.394c-.593,1.091-2.246,1.887-3.135,2.745l-.233-.077-.081-.156.081-.4.78-.545v-.237c-.3-.194-.253-.092-.314-.391l.865-.549-.079-.94a5.8,5.8,0,0,0,1.8-1.411l.47.079v.314a2.666,2.666,0,0,0-.94,1.49h.078l1.885-1.412c.163-.37.267-1.294.626-1.648,1.963-1.933,5.111-3.028,6.589-5.412v-.079c-.989.253-1.25,1.158-2.354,1.254a1.118,1.118,0,0,1-.079.864c-.513-.244-.358-.033-1.1,0l-.077-.159c.122-.312.172-.38,0-.628l-.47.316a1.063,1.063,0,0,1,.158.864h-.314l-.237-.628a.633.633,0,0,0-.312.469c.287.168.216.165.156.471-.534.2-.517.276-1.1.156-.005,1.084-.628,1.238-1.254,1.649l-.784-.158-.079.314c.278.218.124-.013.156.391-1.058.514-3.878,3.92-5.1,3.453v-.077a1.871,1.871,0,0,1,1.258-1.336l.079-.782h-.553l.079-.237a19.855,19.855,0,0,0,2.433-3.294c.257-.36.611-.079,1.02-.315.3-.173,1.45-2.163,1.256-2.745l-.237-.393h-.549c-.776,1.006-4.861,2.339-6.354,2.669l-.784-.078c-.4.2-.235.638-.864.783.061.463.189.329-.156.628-.32-.13-.3-.141-.626,0a9.594,9.594,0,0,0,1.959,5.333c-.717,2.119-1.091,4.511-2.117,6.668a23.981,23.981,0,0,1-1.41,2.9c-.352.509-1.164.838-1.41,1.407-.38.866-.123,1.006-.4,1.413a37.184,37.184,0,0,0-1.96,3.924l.079.157c3.223-.071,3.334-.418,4.71-2.825a3.185,3.185,0,0,1,1.407-.784c1.291.4,1.392-.341,2.515-.655l1.169-.836,2.04-2.193c1.019-2.483,1.424-4.16,2.2-6.044,2.142-1.03,1.722-.732,3.249-.4l.75-.383c.368.189.808-.07,1.178.233.895.727,3.168,2.629,3.168,2.629.194.273,1.647,2.44,1.54,2.864,1.406.848.75,2.619,3.135,2.118.879,1.333,2.655.54,3.92,1.017a17.192,17.192,0,0,1,5.022,2.9,8.377,8.377,0,0,1,1.885,2.822s.876,4.151-.239,5.959a7.975,7.975,0,0,1-2.977,2.438c-1.584.947-4.09.642-5.887.385l-4-.071c-.481.859-2.072.692-2.914.552l-1.737.123-.918.344a5.366,5.366,0,0,1-2.2,0c-.167.29-.047.236-.468.312,0,0-2.245,3.2-2.67,4.154l-1.1.944-.471,1.568c-1.653,2.671-4.969,7.013-5.1,10.589a23.074,23.074,0,0,0,4.395,2.508c1.494.528,5.254,1.336,5.254,1.336,10.07,2.321,14.845,6.607,15.611,8,.237-.1.144-.1.391-.079.063.989.782,1.581,1.1,2.195a18.757,18.757,0,0,1,0,3.3c-.045,1.781-.521,2.792-.395,4.549-.073.048-1.414,2.154-1.643,2.51-.294.444-1.252.574-1.653.941-.209.191-.248.583-.468.781a4.2,4.2,0,0,0-1.649,0c-.037.472-1.838.315-2.431-.155a8.766,8.766,0,0,1-2.507-4.63c-.323-.032-2.788-3.513-3.455-4.233l-3.764-2.51a40.191,40.191,0,0,0-4.077-2.665l-2.35-.628a30.012,30.012,0,0,0-5.495-2.824c-.961-.277-1.449.564-2.273.784v.472c-.782.187-2.06,4.021-6.824,6.583a14.293,14.293,0,0,1-3.608,1.181c-.908.215-13.016-1.241-13.773-1.261,0,0-4.458-.714-5.285-.858a13.275,13.275,0,0,1-1.886-.159,14.158,14.158,0,0,1-2.352-.7c-.932-2.533-.361-2.16-.549-2.9l.393-1.017c-.11-.643-.695-.905-.707-1.886a7.812,7.812,0,0,1-1.96-.472l-.077-.154.077-.081c3.925-.122,7.49-.925,9.885.865l.777-.081a5.165,5.165,0,0,0,.556-.156c.685-.319,1.2-.521,2.278-1.127a16.085,16.085,0,0,0,3.369-.991c1.586-.56,6.771-1.829,7.371-3.608h-.156c-.3-.29-.451-.047-.784-.235l-.549-.7c-4.826-.358-7.392-3.027-8-3.22.079-.638-1.1-.664-1.487-3.84.049-2.045.357-2.993.312-4.471l-.471.158v.468c-.818-.26-.908-.018-1.8.158l.158-.393,1.569-.548v-.316a7.576,7.576,0,0,0-1.959.864l-.157.94a6.471,6.471,0,0,1-1.258.472v-.628l.239.081v.389c.294-.135.411-.15.547-.47-.355-.053-.24.129-.312-.312l-.626-.079c-.185.619-1.713.751-1.338,1.647l-1.095.393c.107-.352.038-.285.385-.393l.161-.786h-.941c-.112.623-.437.522-.705.942l-.312-.156c.2-.248.25-.176.312-.628l-.551.16c-.3.457-.8.422-1.173.78a4.3,4.3,0,0,1-.393,1.335c-.266-.1-.148-.079-.553-.077,0-.3.16-.158-.152-.312,0,0-5.549,3.067-6.67,3.37-.127-.282-.02-.185-.314-.312-.152.281.011.068-.312.077a1.074,1.074,0,0,1-.628.782,5.177,5.177,0,0,1-1.1-.154c-.18.709-.631,1-1.49,1.019v-.391l-.235-.081c-.214.173-.214.268-.318.553-.26-.193-.457-.4-.782-.316-1.284.521-1.259,1.175-1.568,1.647-1.293,1.964-5.494,3.727-5.494,3.727l-1.489.51c-.508.25-5.725,1.88-5.725,1.88-.378-.252-3.634,1.2-8.864-1.959h-.863a10.233,10.233,0,0,0-2.9-1.337c-.352-.054-.743.177-1.177.081a18.978,18.978,0,0,1-2.743-1.334c-2.515-.986-3.429-.283-4.474-3.059a3.282,3.282,0,0,0,.472-.786c.377-.095,1.19-1.927,11.1-4.85.3-.093,11.212-2.159,11.88-2.442.263-.19,10-2.753,11.3-3.295,4.2-1.75,8.7-2.917,12.627-5.1l.472.081c1.37-.4,5.191-1.533,6.276-2.28a1.5,1.5,0,0,0-.081.708,26.273,26.273,0,0,0-5.018,2.433v.157l.077.078a24.486,24.486,0,0,0,7.295-2.668l3.06-.708c1.107-.443,1.925-1.326,3.372-1.412v-.232l-.312-.47-.787.155-.076-.234v-.078c.831-.738,1.818-.518,2.819-1.177.964-.633,1.975-1.456,2.9-2.2.385-.3.147-.652.315-1.022l.862-.548c.2-.31.073-.947.392-1.334l.47-.156-.079-.468c.413-1.045,1.365-2.262,1.886-3.3l.312-1.643c.154-.31.667-.7.784-.945l.077-1.019c.545-.942.744-1.917,1.256-3.057.154-.339.8-.7.938-1.022v-.94l.63-.312v-.7c.872-1.4,2.473-3.487,3.06-5.256.609.058,1.849-1.087,2.354-1.333-.156-.692,1.284-2.357,1.963-2.59v-.314c-3.3.5-4.73,3.717-7.69,2.9l-.236.156c-.013.45.166.314-.235.47-.031-.32-.024-.307-.158-.47h-.077a3.278,3.278,0,0,1-.786,1.017l-.156-.233a13.947,13.947,0,0,0-4.86,3.607s-.909,1.026-1.336,1.645c-1.5,2.2-2.382,2.073-2.666,2.513-.231.355-1.032.469-1.331.786l-.549.782c-.24.2-.226.8-.317.94l-1.331,1.959a26.73,26.73,0,0,0-1.728,2.277c-.429.758-2.2,1.413-2.2,1.413a17.8,17.8,0,0,0-.842,1.823c-.408.742-1.8,4.09-4.627,3.975-.03.316-1.881.429-1.881.429s-3.166.307-4.416-.424c-.72-.42-.754-1.536-1.175-2.039l-.709-.313c-.436-.752.154-5.634.942-6.276l.4.079c-.044-2.139.647-2.433,1.646-3.843.1-.457-.161-1.377.077-1.885,1.127-2.383,1.753-4.786,2.911-7.29.413-.891.641-3.085,1.167-4,.995-1.715,1.793-3.648,2.9-5.177a4.873,4.873,0,0,1-.779-1.1,2.9,2.9,0,0,1-.241-1.177,3.477,3.477,0,0,1,.241-1.414,3.3,3.3,0,0,1,1.325-1.927,3.58,3.58,0,0,1,1.653-.58,3.054,3.054,0,0,1,1.568-.235,4.449,4.449,0,0,1,.606.3c1.265.571,2.3.046,3.473.8.511.323.608.812,1.18,1.017.544.2.917-.112,1.487,0,1.489.3,2.112,1.785,2.9,2.587l1.1,2.985h.313c.241-.275.531-.518.784-.788l.158.158c-.827.54-.56,1.913-.705,2.508h.232l6.9-3.292c2.134-.974,4.282-1.59,6.118-2.511,1.9-.953,4.638-1.249,6.431-2.276l.312-.548a17.047,17.047,0,0,1,1.807-1.02c1.075-.647,4.967-2.633,5.489-2.9.895-.455,4.8-1.86,5.493-2.038a7.541,7.541,0,0,1,4.154.391,3.83,3.83,0,0,1,.94.709c.206-.167.164-.209.472-.314.26.652,3.345,2.418,4,2.512.293.627.769.552,1.1,1.019,1.113,1.58,1.473,2.021,1.489,4.077.353.1.161-.051.312.235-1.3,1.667-2.179,3.9-4.074,4.938-1.474.815-3.858.988-4.631,2.51h.076a9.209,9.209,0,0,0,1.415-.784l.152.081-.312.786c-3.284-.1-6.312,4.552-8.311,4.314l-.08-.63a2.02,2.02,0,0,1-.786-.154c-.1.755-.536,1.087-.782,1.882Z" fill="#16428f"/><path d="M355.416,1023.446H371.34l-15.923,61.094H340.872l-9.236-41.279-9.131,41.279h-14.75l-15.925-61.094h15.925l8.384,38.215,8.6-38.215h13.795l8.5,38.215Z" fill="#16428f"/><path d="M456.233,1023.446l17.443-.033-19.036,60.655c-1.272,4.246-3.289,11.208-6.37,14.628-2.866,3.062-6.262,4.481-18.894,4.481-1.806,0-2.545-.119-4.139-.235v-13.567h4.139c1.486,0,4.99,0,6.584-1.531,1.269-1.061,2.337-3.657,2.337-6.135a20.466,20.466,0,0,0-1.168-5.188l-16.987-53.075h16.987l9.977,41.162Z" fill="#16428f"/><path d="M168.259,1001.071l-26.212,83.458h19.248l4.9-17.731h24.574l5.008,17.731h19.354l-27.3-83.458Zm9.9,18.32,8.375,32.158H170.216Z" fill="#16428f"/></g></svg>